<svg width="22" height="20" viewBox="0 0 22 20" fill="none" xmlns="http://www.w3.org/2000/svg">
<path d="M11 19.4314C10.8167 19.4314 10.6375 19.405 10.4625 19.3521C10.2875 19.2992 10.125 19.2286 9.975 19.1405C9.29167 18.6996 8.575 18.3646 7.825 18.1354C7.075 17.9062 6.3 17.7915 5.5 17.7915C4.8 17.7915 4.1125 17.8885 3.4375 18.0825C2.7625 18.2764 2.11667 18.5498 1.5 18.9024C1.15 19.0964 0.8125 19.0876 0.4875 18.876C0.1625 18.6644 0 18.3558 0 17.9502V5.20169C0 5.00773 0.0458333 4.82258 0.1375 4.64626C0.229167 4.46993 0.366667 4.33768 0.55 4.24952C1.31667 3.82633 2.11667 3.50894 2.95 3.29734C3.78333 3.08575 4.63333 2.97995 5.5 2.97995C6.46667 2.97995 7.4125 3.1122 8.3375 3.37669C9.2625 3.64118 10.15 4.03792 11 4.56691V17.3684C11.85 16.8041 12.7417 16.3809 13.675 16.0988C14.6083 15.8167 15.55 15.6756 16.5 15.6756C17.1 15.6756 17.6875 15.7285 18.2625 15.8343C18.8375 15.9401 19.4167 16.0988 20 16.3104V3.61473C20.25 3.7029 20.4958 3.79547 20.7375 3.89245C20.9792 3.98943 21.2167 4.10845 21.45 4.24952C21.6333 4.33768 21.7708 4.46993 21.8625 4.64626C21.9542 4.82258 22 5.00773 22 5.20169V17.9502C22 18.3558 21.8375 18.6644 21.5125 18.876C21.1875 19.0876 20.85 19.0964 20.5 18.9024C19.8833 18.5498 19.2375 18.2764 18.5625 18.0825C17.8875 17.8885 17.2 17.7915 16.5 17.7915C15.7 17.7915 14.925 17.9062 14.175 18.1354C13.425 18.3646 12.7083 18.6996 12.025 19.1405C11.875 19.2286 11.7125 19.2992 11.5375 19.3521C11.3625 19.405 11.1833 19.4314 11 19.4314ZM13.825 13.8242C13.6583 13.9829 13.4792 14.0137 13.2875 13.9167C13.0958 13.8197 13 13.6566 13 13.4274V4.7785C13 4.70797 13.0125 4.64185 13.0375 4.58013C13.0625 4.51842 13.1 4.46111 13.15 4.40821L17.15 0.176328C17.3167 0 17.5 -0.0440821 17.7 0.0440821C17.9 0.132246 18 0.299758 18 0.546618V9.61872C18 9.70688 17.9833 9.78182 17.95 9.84354C17.9167 9.90525 17.875 9.96256 17.825 10.0155L13.825 13.8242ZM9 16.3368V5.86292C8.45 5.61606 7.87917 5.42651 7.2875 5.29426C6.69583 5.16202 6.1 5.09589 5.5 5.09589C4.88333 5.09589 4.28333 5.15761 3.7 5.28104C3.11667 5.40447 2.55 5.58961 2 5.83647V16.3368C2.58333 16.1076 3.1625 15.9401 3.7375 15.8343C4.3125 15.7285 4.9 15.6756 5.5 15.6756C6.1 15.6756 6.6875 15.7285 7.2625 15.8343C7.8375 15.9401 8.41667 16.1076 9 16.3368Z" fill="url(#paint0_linear_6_211)"/>
<defs>
<linearGradient id="paint0_linear_6_211" x1="11" y1="0" x2="11" y2="19.4314" gradientUnits="userSpaceOnUse">
<stop stop-color="#00DBA6"/>
<stop offset="1" stop-color="#007559"/>
</linearGradient>
</defs>
</svg>
