<svg width="232" height="48" viewBox="0 0 232 48" fill="none" xmlns="http://www.w3.org/2000/svg">
<path d="M13.288 33.96C13.288 36.616 12.808 38.808 11.848 40.536C10.92 42.264 9.67199 43.608 8.10398 44.568C6.56798 45.56 4.72798 46.408 2.58398 47.112L0.471985 41.544C1.87998 41 2.93598 40.376 3.63999 39.672C4.34399 38.968 4.80799 38.152 5.03199 37.224C5.28799 36.296 5.41599 35.112 5.41599 33.672V5.73601H13.288V33.96Z" fill="#1F1E1E"/>
<path d="M30.2504 12.696C34.1544 12.696 37.2104 13.896 39.4184 16.296C41.6264 18.664 42.7304 21.992 42.7304 26.28C42.7304 29 42.2184 31.384 41.1944 33.432C40.2024 35.448 38.7624 37.016 36.8744 38.136C35.0184 39.256 32.8104 39.816 30.2504 39.816C26.3784 39.816 23.3224 38.632 21.0824 36.264C18.8744 33.864 17.7704 30.52 17.7704 26.232C17.7704 23.512 18.2664 21.144 19.2584 19.128C20.2824 17.08 21.7224 15.496 23.5784 14.376C25.4664 13.256 27.6904 12.696 30.2504 12.696ZM30.2504 18.264C28.7144 18.264 27.5624 18.92 26.7944 20.232C26.0264 21.512 25.6424 23.512 25.6424 26.232C25.6424 29.016 26.0104 31.048 26.7464 32.328C27.5144 33.608 28.6824 34.248 30.2504 34.248C31.7864 34.248 32.9384 33.608 33.7064 32.328C34.4744 31.016 34.8584 29 34.8584 26.28C34.8584 23.496 34.4744 21.464 33.7064 20.184C32.9704 18.904 31.8184 18.264 30.2504 18.264Z" fill="#1F1E1E"/>
<path d="M67.0289 31.608C67.0289 32.568 67.1569 33.272 67.4129 33.72C67.7009 34.168 68.1489 34.504 68.7569 34.728L67.1729 39.672C65.6049 39.544 64.3249 39.208 63.3329 38.664C62.3409 38.088 61.5729 37.192 61.0289 35.976C59.3649 38.536 56.8049 39.816 53.3489 39.816C50.8209 39.816 48.8049 39.08 47.3009 37.608C45.7969 36.136 45.0449 34.216 45.0449 31.848C45.0449 29.064 46.0689 26.936 48.1169 25.464C50.1649 23.992 53.1249 23.256 56.9969 23.256H59.5889V22.152C59.5889 20.648 59.2689 19.624 58.6289 19.08C57.9889 18.504 56.8689 18.216 55.2689 18.216C54.4369 18.216 53.4289 18.344 52.2449 18.6C51.0609 18.824 49.8449 19.144 48.5969 19.56L46.8689 14.568C48.4689 13.96 50.1009 13.496 51.7649 13.176C53.4609 12.856 55.0289 12.696 56.4689 12.696C60.1169 12.696 62.7889 13.448 64.4849 14.952C66.1809 16.456 67.0289 18.712 67.0289 21.72V31.608ZM55.5569 34.392C57.2849 34.392 58.6289 33.576 59.5889 31.944V27.432H57.7169C55.9889 27.432 54.6929 27.736 53.8289 28.344C52.9969 28.952 52.5809 29.896 52.5809 31.176C52.5809 32.2 52.8369 33 53.3489 33.576C53.8929 34.12 54.6289 34.392 55.5569 34.392ZM59.5889 8.52001C58.8849 8.52001 58.2769 8.40801 57.7649 8.18401C57.2529 7.96001 56.6929 7.64001 56.0849 7.22401C55.2849 6.64801 54.6289 6.36001 54.1169 6.36001C53.5729 6.36001 53.1089 6.53601 52.7249 6.88801C52.3729 7.20801 51.9889 7.73601 51.5729 8.47201L47.7809 6.64801C48.4209 4.98401 49.2689 3.62401 50.3249 2.56801C51.4129 1.51201 52.6289 0.984009 53.9729 0.984009C54.7089 0.984009 55.3329 1.11201 55.8449 1.36801C56.3889 1.59201 56.9809 1.91201 57.6209 2.32801C58.0689 2.61601 58.4209 2.82401 58.6769 2.95201C58.9649 3.08001 59.2529 3.14401 59.5409 3.14401C60.0529 3.14401 60.4849 2.98401 60.8369 2.66401C61.2209 2.31201 61.6209 1.76801 62.0369 1.03201L65.8289 2.90401C65.1569 4.60001 64.2769 5.96001 63.1889 6.98401C62.1329 8.00801 60.9329 8.52001 59.5889 8.52001Z" fill="#1F1E1E"/>
<path d="M84.1097 12.696C88.0137 12.696 91.0697 13.896 93.2777 16.296C95.4857 18.664 96.5897 21.992 96.5897 26.28C96.5897 29 96.0777 31.384 95.0537 33.432C94.0617 35.448 92.6217 37.016 90.7337 38.136C88.8777 39.256 86.6697 39.816 84.1097 39.816C80.2377 39.816 77.1817 38.632 74.9417 36.264C72.7337 33.864 71.6297 30.52 71.6297 26.232C71.6297 23.512 72.1257 21.144 73.1177 19.128C74.1417 17.08 75.5817 15.496 77.4377 14.376C79.3257 13.256 81.5497 12.696 84.1097 12.696ZM84.1097 18.264C82.5737 18.264 81.4217 18.92 80.6537 20.232C79.8857 21.512 79.5017 23.512 79.5017 26.232C79.5017 29.016 79.8697 31.048 80.6057 32.328C81.3737 33.608 82.5417 34.248 84.1097 34.248C85.6457 34.248 86.7977 33.608 87.5657 32.328C88.3337 31.016 88.7177 29 88.7177 26.28C88.7177 23.496 88.3337 21.464 87.5657 20.184C86.8297 18.904 85.6777 18.264 84.1097 18.264Z" fill="#1F1E1E"/>
<path d="M120.508 5.73601V32.76H133.468L132.652 39H112.636V5.73601H120.508Z" fill="#1F1E1E"/>
<path d="M157.902 39H151.326L150.99 35.784C149.134 38.472 146.558 39.816 143.262 39.816C140.926 39.816 139.15 39.112 137.934 37.704C136.75 36.296 136.158 34.328 136.158 31.8V13.512H143.742V30.84C143.742 32.088 143.934 32.968 144.318 33.48C144.734 33.96 145.358 34.2 146.19 34.2C147.79 34.2 149.166 33.208 150.318 31.224V13.512H157.902V39Z" fill="#1F1E1E"/>
<path d="M174.907 12.696C176.667 12.696 178.251 12.952 179.659 13.464C181.067 13.976 182.395 14.76 183.643 15.816L180.379 20.328C178.779 19.112 177.163 18.504 175.531 18.504C173.835 18.504 172.555 19.128 171.691 20.376C170.827 21.624 170.395 23.64 170.395 26.424C170.395 29.112 170.827 31.016 171.691 32.136C172.555 33.256 173.803 33.816 175.435 33.816C176.299 33.816 177.083 33.688 177.787 33.432C178.491 33.144 179.339 32.696 180.331 32.088L183.643 36.792C181.115 38.808 178.251 39.816 175.051 39.816C172.459 39.816 170.219 39.272 168.331 38.184C166.443 37.064 164.987 35.512 163.963 33.528C162.939 31.512 162.427 29.16 162.427 26.472C162.427 23.784 162.939 21.4 163.963 19.32C164.987 17.24 166.443 15.624 168.331 14.472C170.219 13.288 172.411 12.696 174.907 12.696Z" fill="#1F1E1E"/>
<path d="M206.623 31.608C206.623 32.568 206.751 33.272 207.007 33.72C207.295 34.168 207.743 34.504 208.351 34.728L206.767 39.672C205.199 39.544 203.919 39.208 202.927 38.664C201.935 38.088 201.167 37.192 200.623 35.976C198.959 38.536 196.399 39.816 192.943 39.816C190.415 39.816 188.399 39.08 186.895 37.608C185.391 36.136 184.639 34.216 184.639 31.848C184.639 29.064 185.663 26.936 187.711 25.464C189.759 23.992 192.719 23.256 196.591 23.256H199.183V22.152C199.183 20.648 198.863 19.624 198.223 19.08C197.583 18.504 196.463 18.216 194.863 18.216C194.031 18.216 193.023 18.344 191.839 18.6C190.655 18.824 189.439 19.144 188.191 19.56L186.463 14.568C188.063 13.96 189.695 13.496 191.359 13.176C193.055 12.856 194.623 12.696 196.063 12.696C199.711 12.696 202.383 13.448 204.079 14.952C205.775 16.456 206.623 18.712 206.623 21.72V31.608ZM195.151 34.392C196.879 34.392 198.223 33.576 199.183 31.944V27.432H197.311C195.583 27.432 194.287 27.736 193.423 28.344C192.591 28.952 192.175 29.896 192.175 31.176C192.175 32.2 192.431 33 192.943 33.576C193.487 34.12 194.223 34.392 195.151 34.392Z" fill="#1F1E1E"/>
<path d="M221.171 12.696C222.995 12.696 224.707 12.968 226.307 13.512C227.907 14.056 229.315 14.824 230.531 15.816L227.747 20.088C225.667 18.776 223.571 18.12 221.459 18.12C220.467 18.12 219.699 18.296 219.155 18.648C218.643 18.968 218.387 19.432 218.387 20.04C218.387 20.52 218.499 20.92 218.723 21.24C218.979 21.528 219.475 21.832 220.211 22.152C220.947 22.472 222.083 22.856 223.619 23.304C226.275 24.072 228.243 25.08 229.523 26.328C230.835 27.544 231.491 29.24 231.491 31.416C231.491 33.144 230.995 34.648 230.003 35.928C229.011 37.176 227.651 38.136 225.923 38.808C224.195 39.48 222.275 39.816 220.163 39.816C218.019 39.816 216.019 39.48 214.163 38.808C212.339 38.136 210.787 37.208 209.507 36.024L213.203 31.896C215.347 33.56 217.603 34.392 219.971 34.392C221.123 34.392 222.019 34.184 222.659 33.768C223.331 33.352 223.667 32.76 223.667 31.992C223.667 31.384 223.539 30.904 223.283 30.552C223.027 30.2 222.531 29.88 221.795 29.592C221.059 29.272 219.891 28.888 218.291 28.44C215.763 27.704 213.875 26.68 212.627 25.368C211.379 24.056 210.755 22.424 210.755 20.472C210.755 19 211.171 17.688 212.003 16.536C212.867 15.352 214.083 14.424 215.651 13.752C217.251 13.048 219.091 12.696 221.171 12.696Z" fill="#1F1E1E"/>
</svg>
