<svg width="292" height="40" viewBox="0 0 292 40" fill="none" xmlns="http://www.w3.org/2000/svg">
<path d="M35.4018 39H27.6738L27.0978 25.992C26.9378 22.888 26.8578 20.12 26.8578 17.688C26.8578 15.832 26.9058 14.072 27.0018 12.408L21.8658 35.496H14.4258L8.95383 12.408C9.14583 15.192 9.24183 17.816 9.24183 20.28C9.24183 22.136 9.19383 24.072 9.09783 26.088L8.52183 39H0.841827L3.33783 5.73602H13.2738L18.2658 28.296L22.9218 5.73602H32.9058L35.4018 39Z" fill="#1F1E1E"/>
<path d="M60.2242 31.608C60.2242 32.568 60.3522 33.272 60.6082 33.72C60.8962 34.168 61.3442 34.504 61.9522 34.728L60.3682 39.672C58.8002 39.544 57.5202 39.208 56.5282 38.664C55.5362 38.088 54.7682 37.192 54.2242 35.976C52.5602 38.536 50.0002 39.816 46.5442 39.816C44.0162 39.816 42.0002 39.08 40.4962 37.608C38.9922 36.136 38.2402 34.216 38.2402 31.848C38.2402 29.064 39.2642 26.936 41.3122 25.464C43.3602 23.992 46.3202 23.256 50.1922 23.256H52.7842V22.152C52.7842 20.648 52.4642 19.624 51.8242 19.08C51.1842 18.504 50.0642 18.216 48.4642 18.216C47.6322 18.216 46.6242 18.344 45.4402 18.6C44.2562 18.824 43.0402 19.144 41.7922 19.56L40.0642 14.568C41.6642 13.96 43.2962 13.496 44.9602 13.176C46.6562 12.856 48.2242 12.696 49.6642 12.696C53.3122 12.696 55.9842 13.448 57.6802 14.952C59.3762 16.456 60.2242 18.712 60.2242 21.72V31.608ZM48.7522 34.392C50.4802 34.392 51.8242 33.576 52.7842 31.944V27.432H50.9122C49.1842 27.432 47.8882 27.736 47.0242 28.344C46.1922 28.952 45.7762 29.896 45.7762 31.176C45.7762 32.2 46.0322 33 46.5442 33.576C47.0882 34.12 47.8242 34.392 48.7522 34.392Z" fill="#1F1E1E"/>
<path d="M80.1371 25.368L88.3451 39H79.7531L75.3371 29.448L71.0171 39H62.7611L70.9691 25.608L63.5771 13.512H72.0731L75.6251 21.672L79.0331 13.512H87.0971L80.1371 25.368Z" fill="#1F1E1E"/>
<path d="M98.4116 13.512V39H90.8276V13.512H98.4116ZM94.5716 0.0720215C95.8836 0.0720215 96.9556 0.488022 97.7876 1.32002C98.6516 2.12002 99.0836 3.14402 99.0836 4.39202C99.0836 5.64002 98.6516 6.68002 97.7876 7.51202C96.9556 8.31202 95.8836 8.71202 94.5716 8.71202C93.2596 8.71202 92.1876 8.31202 91.3556 7.51202C90.5236 6.68002 90.1076 5.64002 90.1076 4.39202C90.1076 3.14402 90.5236 2.12002 91.3556 1.32002C92.1876 0.488022 93.2596 0.0720215 94.5716 0.0720215Z" fill="#1F1E1E"/>
<path d="M119.302 12.696C121.51 12.696 123.238 13.368 124.486 14.712C125.734 16.056 126.358 17.944 126.358 20.376V39H118.774V21.672C118.774 20.392 118.566 19.512 118.15 19.032C117.766 18.52 117.174 18.264 116.374 18.264C114.838 18.264 113.366 19.368 111.958 21.576V39H104.374V13.512H110.998L111.526 16.536C112.614 15.256 113.782 14.296 115.03 13.656C116.31 13.016 117.734 12.696 119.302 12.696Z" fill="#1F1E1E"/>
<path d="M154.302 25.752C154.302 26.808 154.254 27.72 154.158 28.488H138.366C138.622 30.632 139.23 32.136 140.19 33C141.15 33.864 142.478 34.296 144.174 34.296C145.198 34.296 146.19 34.12 147.15 33.768C148.11 33.384 149.15 32.808 150.27 32.04L153.39 36.264C150.414 38.632 147.102 39.816 143.454 39.816C139.326 39.816 136.158 38.6 133.95 36.168C131.742 33.736 130.638 30.472 130.638 26.376C130.638 23.784 131.102 21.464 132.03 19.416C132.958 17.336 134.318 15.704 136.11 14.52C137.902 13.304 140.046 12.696 142.542 12.696C146.222 12.696 149.102 13.848 151.182 16.152C153.262 18.456 154.302 21.656 154.302 25.752ZM146.862 23.592C146.798 19.688 145.422 17.736 142.734 17.736C141.422 17.736 140.398 18.216 139.662 19.176C138.958 20.136 138.526 21.72 138.366 23.928H146.862V23.592Z" fill="#1F1E1E"/>
<path d="M187.617 39L185.889 31.848H176.193L174.513 39H166.353L176.385 5.73602H185.937L195.969 39H187.617ZM177.537 26.136H184.545L181.041 11.448L177.537 26.136Z" fill="#1F1E1E"/>
<path d="M214.249 37.8C213.321 38.44 212.233 38.936 210.985 39.288C209.769 39.64 208.553 39.816 207.337 39.816C201.769 39.784 198.985 36.712 198.985 30.6V18.792H195.385V13.512H198.985V7.99202L206.569 7.12802V13.512H212.425L211.609 18.792H206.569V30.504C206.569 31.688 206.761 32.536 207.145 33.048C207.529 33.56 208.137 33.816 208.969 33.816C209.833 33.816 210.745 33.544 211.705 33L214.249 37.8Z" fill="#1F1E1E"/>
<path d="M231.709 12.696C233.917 12.696 235.645 13.368 236.893 14.712C238.141 16.056 238.765 17.944 238.765 20.376V39H231.181V21.672C231.181 20.392 230.973 19.512 230.557 19.032C230.141 18.52 229.549 18.264 228.781 18.264C227.245 18.264 225.773 19.352 224.365 21.528V39H216.781V3.38402L224.365 2.61602V16.248C225.421 15.064 226.541 14.184 227.725 13.608C228.909 13 230.237 12.696 231.709 12.696Z" fill="#1F1E1E"/>
<path d="M255.524 12.696C259.428 12.696 262.484 13.896 264.692 16.296C266.9 18.664 268.004 21.992 268.004 26.28C268.004 29 267.492 31.384 266.468 33.432C265.476 35.448 264.036 37.016 262.148 38.136C260.292 39.256 258.084 39.816 255.524 39.816C251.652 39.816 248.596 38.632 246.356 36.264C244.148 33.864 243.044 30.52 243.044 26.232C243.044 23.512 243.54 21.144 244.532 19.128C245.556 17.08 246.996 15.496 248.852 14.376C250.74 13.256 252.964 12.696 255.524 12.696ZM255.524 18.264C253.988 18.264 252.836 18.92 252.068 20.232C251.3 21.512 250.916 23.512 250.916 26.232C250.916 29.016 251.284 31.048 252.02 32.328C252.788 33.608 253.956 34.248 255.524 34.248C257.06 34.248 258.212 33.608 258.98 32.328C259.748 31.016 260.132 29 260.132 26.28C260.132 23.496 259.748 21.464 258.98 20.184C258.244 18.904 257.092 18.264 255.524 18.264Z" fill="#1F1E1E"/>
<path d="M281.491 12.696C283.315 12.696 285.027 12.968 286.627 13.512C288.227 14.056 289.635 14.824 290.851 15.816L288.067 20.088C285.987 18.776 283.891 18.12 281.779 18.12C280.787 18.12 280.019 18.296 279.475 18.648C278.963 18.968 278.707 19.432 278.707 20.04C278.707 20.52 278.819 20.92 279.043 21.24C279.299 21.528 279.795 21.832 280.531 22.152C281.267 22.472 282.403 22.856 283.939 23.304C286.595 24.072 288.563 25.08 289.843 26.328C291.155 27.544 291.811 29.24 291.811 31.416C291.811 33.144 291.315 34.648 290.323 35.928C289.331 37.176 287.971 38.136 286.243 38.808C284.515 39.48 282.595 39.816 280.483 39.816C278.339 39.816 276.339 39.48 274.483 38.808C272.659 38.136 271.107 37.208 269.827 36.024L273.523 31.896C275.667 33.56 277.923 34.392 280.291 34.392C281.443 34.392 282.339 34.184 282.979 33.768C283.651 33.352 283.987 32.76 283.987 31.992C283.987 31.384 283.859 30.904 283.603 30.552C283.347 30.2 282.851 29.88 282.115 29.592C281.379 29.272 280.211 28.888 278.611 28.44C276.083 27.704 274.195 26.68 272.947 25.368C271.699 24.056 271.075 22.424 271.075 20.472C271.075 19 271.491 17.688 272.323 16.536C273.187 15.352 274.403 14.424 275.971 13.752C277.571 13.048 279.411 12.696 281.491 12.696Z" fill="#1F1E1E"/>
</svg>
