<svg width="294" height="60" viewBox="0 0 294 60" fill="none" xmlns="http://www.w3.org/2000/svg">
<path d="M36.4018 46H28.6738L28.0978 32.992C27.9378 29.888 27.8578 27.12 27.8578 24.688C27.8578 22.832 27.9058 21.072 28.0018 19.408L22.8658 42.496H15.4258L9.95383 19.408C10.1458 22.192 10.2418 24.816 10.2418 27.28C10.2418 29.136 10.1938 31.072 10.0978 33.088L9.52183 46H1.84183L4.33783 12.736H14.2738L19.2658 35.296L23.9218 12.736H33.9058L36.4018 46Z" fill="#1F1E1E"/>
<path d="M61.2242 38.608C61.2242 39.568 61.3522 40.272 61.6082 40.72C61.8962 41.168 62.3442 41.504 62.9522 41.728L61.3682 46.672C59.8002 46.544 58.5202 46.208 57.5282 45.664C56.5362 45.088 55.7682 44.192 55.2242 42.976C53.5602 45.536 51.0002 46.816 47.5442 46.816C45.0162 46.816 43.0002 46.08 41.4962 44.608C39.9922 43.136 39.2402 41.216 39.2402 38.848C39.2402 36.064 40.2642 33.936 42.3122 32.464C44.3602 30.992 47.3202 30.256 51.1922 30.256H53.7842V29.152C53.7842 27.648 53.4642 26.624 52.8242 26.08C52.1842 25.504 51.0642 25.216 49.4642 25.216C48.6322 25.216 47.6242 25.344 46.4402 25.6C45.2562 25.824 44.0402 26.144 42.7922 26.56L41.0642 21.568C42.6642 20.96 44.2962 20.496 45.9602 20.176C47.6562 19.856 49.2242 19.696 50.6642 19.696C54.3122 19.696 56.9842 20.448 58.6802 21.952C60.3762 23.456 61.2242 25.712 61.2242 28.72V38.608ZM49.7522 41.392C51.4802 41.392 52.8242 40.576 53.7842 38.944V34.432H51.9122C50.1842 34.432 48.8882 34.736 48.0242 35.344C47.1922 35.952 46.7762 36.896 46.7762 38.176C46.7762 39.2 47.0322 40 47.5442 40.576C48.0882 41.12 48.8242 41.392 49.7522 41.392Z" fill="#1F1E1E"/>
<path d="M81.1371 32.368L89.3451 46H80.7531L76.3371 36.448L72.0171 46H63.7611L71.9691 32.608L64.5771 20.512H73.0731L76.6251 28.672L80.0331 20.512H88.0971L81.1371 32.368Z" fill="#1F1E1E"/>
<path d="M99.4116 20.512V46H91.8276V20.512H99.4116ZM95.5716 7.07202C96.8836 7.07202 97.9556 7.48802 98.7876 8.32002C99.6516 9.12002 100.084 10.144 100.084 11.392C100.084 12.64 99.6516 13.68 98.7876 14.512C97.9556 15.312 96.8836 15.712 95.5716 15.712C94.2596 15.712 93.1876 15.312 92.3556 14.512C91.5236 13.68 91.1076 12.64 91.1076 11.392C91.1076 10.144 91.5236 9.12002 92.3556 8.32002C93.1876 7.48802 94.2596 7.07202 95.5716 7.07202Z" fill="#1F1E1E"/>
<path d="M120.302 19.696C122.51 19.696 124.238 20.368 125.486 21.712C126.734 23.056 127.358 24.944 127.358 27.376V46H119.774V28.672C119.774 27.392 119.566 26.512 119.15 26.032C118.766 25.52 118.174 25.264 117.374 25.264C115.838 25.264 114.366 26.368 112.958 28.576V46H105.374V20.512H111.998L112.526 23.536C113.614 22.256 114.782 21.296 116.03 20.656C117.31 20.016 118.734 19.696 120.302 19.696Z" fill="#1F1E1E"/>
<path d="M155.302 32.752C155.302 33.808 155.254 34.72 155.158 35.488H139.366C139.622 37.632 140.23 39.136 141.19 40C142.15 40.864 143.478 41.296 145.174 41.296C146.198 41.296 147.19 41.12 148.15 40.768C149.11 40.384 150.15 39.808 151.27 39.04L154.39 43.264C151.414 45.632 148.102 46.816 144.454 46.816C140.326 46.816 137.158 45.6 134.95 43.168C132.742 40.736 131.638 37.472 131.638 33.376C131.638 30.784 132.102 28.464 133.03 26.416C133.958 24.336 135.318 22.704 137.11 21.52C138.902 20.304 141.046 19.696 143.542 19.696C147.222 19.696 150.102 20.848 152.182 23.152C154.262 25.456 155.302 28.656 155.302 32.752ZM147.862 30.592C147.798 26.688 146.422 24.736 143.734 24.736C142.422 24.736 141.398 25.216 140.662 26.176C139.958 27.136 139.526 28.72 139.366 30.928H147.862V30.592Z" fill="#1F1E1E"/>
<path d="M188.617 46L186.889 38.848H177.193L175.513 46H167.353L177.385 12.736H186.937L196.969 46H188.617ZM178.537 33.136H185.545L182.041 18.448L178.537 33.136Z" fill="#1F1E1E"/>
<path d="M215.249 44.8C214.321 45.44 213.233 45.936 211.985 46.288C210.769 46.64 209.553 46.816 208.337 46.816C202.769 46.784 199.985 43.712 199.985 37.6V25.792H196.385V20.512H199.985V14.992L207.569 14.128V20.512H213.425L212.609 25.792H207.569V37.504C207.569 38.688 207.761 39.536 208.145 40.048C208.529 40.56 209.137 40.816 209.969 40.816C210.833 40.816 211.745 40.544 212.705 40L215.249 44.8Z" fill="#1F1E1E"/>
<path d="M232.709 19.696C234.917 19.696 236.645 20.368 237.893 21.712C239.141 23.056 239.765 24.944 239.765 27.376V46H232.181V28.672C232.181 27.392 231.973 26.512 231.557 26.032C231.141 25.52 230.549 25.264 229.781 25.264C228.245 25.264 226.773 26.352 225.365 28.528V46H217.781V10.384L225.365 9.61602V23.248C226.421 22.064 227.541 21.184 228.725 20.608C229.909 20 231.237 19.696 232.709 19.696Z" fill="#1F1E1E"/>
<path d="M256.524 19.696C260.428 19.696 263.484 20.896 265.692 23.296C267.9 25.664 269.004 28.992 269.004 33.28C269.004 36 268.492 38.384 267.468 40.432C266.476 42.448 265.036 44.016 263.148 45.136C261.292 46.256 259.084 46.816 256.524 46.816C252.652 46.816 249.596 45.632 247.356 43.264C245.148 40.864 244.044 37.52 244.044 33.232C244.044 30.512 244.54 28.144 245.532 26.128C246.556 24.08 247.996 22.496 249.852 21.376C251.74 20.256 253.964 19.696 256.524 19.696ZM256.524 25.264C254.988 25.264 253.836 25.92 253.068 27.232C252.3 28.512 251.916 30.512 251.916 33.232C251.916 36.016 252.284 38.048 253.02 39.328C253.788 40.608 254.956 41.248 256.524 41.248C258.06 41.248 259.212 40.608 259.98 39.328C260.748 38.016 261.132 36 261.132 33.28C261.132 30.496 260.748 28.464 259.98 27.184C259.244 25.904 258.092 25.264 256.524 25.264Z" fill="#1F1E1E"/>
<path d="M282.491 19.696C284.315 19.696 286.027 19.968 287.627 20.512C289.227 21.056 290.635 21.824 291.851 22.816L289.067 27.088C286.987 25.776 284.891 25.12 282.779 25.12C281.787 25.12 281.019 25.296 280.475 25.648C279.963 25.968 279.707 26.432 279.707 27.04C279.707 27.52 279.819 27.92 280.043 28.24C280.299 28.528 280.795 28.832 281.531 29.152C282.267 29.472 283.403 29.856 284.939 30.304C287.595 31.072 289.563 32.08 290.843 33.328C292.155 34.544 292.811 36.24 292.811 38.416C292.811 40.144 292.315 41.648 291.323 42.928C290.331 44.176 288.971 45.136 287.243 45.808C285.515 46.48 283.595 46.816 281.483 46.816C279.339 46.816 277.339 46.48 275.483 45.808C273.659 45.136 272.107 44.208 270.827 43.024L274.523 38.896C276.667 40.56 278.923 41.392 281.291 41.392C282.443 41.392 283.339 41.184 283.979 40.768C284.651 40.352 284.987 39.76 284.987 38.992C284.987 38.384 284.859 37.904 284.603 37.552C284.347 37.2 283.851 36.88 283.115 36.592C282.379 36.272 281.211 35.888 279.611 35.44C277.083 34.704 275.195 33.68 273.947 32.368C272.699 31.056 272.075 29.424 272.075 27.472C272.075 26 272.491 24.688 273.323 23.536C274.187 22.352 275.403 21.424 276.971 20.752C278.571 20.048 280.411 19.696 282.491 19.696Z" fill="#1F1E1E"/>
</svg>
